{"title":"Mona.Lisa.Smile.2003.SWESUB.DVDRip.XviD.AC3.(5.1).-Zen_Bud","uid":5597952,"size":1472253080,"categoryP":"video","categoryS":"movies","magnet":"?xt=urn:btih:89b9c1f07a2eb7abfb8e3068088d5481e477c6b7&amp;dn=Mona.Lisa.Smile.2003.SWESUB.DVDRip.XviD.AC3.%285.1%29.-Zen_Bud&amp;tr=udp%3A%2F%2Ftracker.openbittorrent.com%3A80&amp;tr=udp%3A%2F%2Fopen.demonii.com%3A1337&amp;tr=udp%3A%2F%2Ftracker.coppersurfer.tk%3A6969&amp;tr=udp%3A%2F%2Fexodus.desync.com%3A6969","seeders":1,"leechers":0,"uploader":"Zen_Bud","files":1,"time":1275120838,"description":"General\nComplete name                    : Mona.Lisa.Smile.avi\nFormat                           : AVI\nFile size                        : 1.37 GiB\nDuration                         : 1h 54mn\nOverall bit rate                 : 1 716 Kbps\n\nVideo\nID                               : 0\nFormat                           : MPEG-4 Visual\nCodec ID/Hint                    : XviD\nDuration                         : 1h 54mn\nBit rate                         : 1 257 Kbps\nWidth                            : 718 pixels\nHeight                           : 552 pixels\nDisplay aspect ratio             : 1.850\nChroma subsampling               : 4:2:0\nBit depth                        : 8 bits\nScan type                        : Progressive\nBits/(Pixel*Frame)               : 0.127\nStream size                      : 1.00 GiB (73%)\nWriting library                  : XviD 1.1.2 (UTC 2006-11-01)\n\nAudio\nID                               : 1\nFormat                           : AC-3\nDuration                         : 1h 54mn\nBit rate                         : 448 Kbps\nChannel(s)                       : 6 channels\nChannel positions                : Front: L C R, Side: L R, LFE\nSampling rate                    : 48.0 KHz\nStream size                      : 367 MiB (26%)\n\n\n","torrent":{"xt":"urn:btih:89b9c1f07a2eb7abfb8e3068088d5481e477c6b7","amp;dn":"Mona.Lisa.Smile.2003.SWESUB.DVDRip.XviD.AC3.%285.1%29.-Zen_Bud","amp;tr":["udp%3A%2F%2Ftracker.openbittorrent.com%3A80","udp%3A%2F%2Fopen.demonii.com%3A1337","udp%3A%2F%2Ftracker.coppersurfer.tk%3A6969","udp%3A%2F%2Fexodus.desync.com%3A6969"],"infoHash":"89b9c1f07a2eb7abfb8e3068088d5481e477c6b7","infoHashBuffer":{"type":"Buffer","data":[137,185,193,240,122,46,183,171,251,142,48,104,8,141,84,129,228,119,198,183]},"announce":[],"urlList":[]}}